PathFileType	3	(X/Y/Z)	random_1__view1_aligned.trc
DataRate	CameraRate	NumFrames	NumMarkers	Units	OrigDataRate	OrigDataStartFrame	OrigNumFrames
100.0	100.0	14	19	mm	100.0	1372	1930
Frame#	Time	pelvis			neck			head			hip_left			hip_right			knee_left			knee_right			ankle_left			ankle_right			heel_left			heel_right			toe_left			toe_right			shoulder_left			shoulder_right			elbow_left			elbow_right			wrist_left			wrist_right			
		X1	Y1	Z1	X2	Y2	Z2	X3	Y3	Z3	X4	Y4	Z4	X5	Y5	Z5	X6	Y6	Z6	X7	Y7	Z7	X8	Y8	Z8	X9	Y9	Z9	X10	Y10	Z10	X11	Y11	Z11	X12	Y12	Z12	X13	Y13	Z13	X14	Y14	Z14	X15	Y15	Z15	X16	Y16	Z16	X17	Y17	Z17	X18	Y18	Z18	X19	Y19	Z19	
1372	13.71000	59.241865	937.047621	282.984360	70.862802	1508.357735	285.161743	148.993911	1659.805340	231.038461	41.014189	929.221379	208.326242	77.469546	944.873863	357.642483	147.286773	532.822332	78.850306	90.373867	514.652333	372.175608	47.560487	136.627957	13.203717	-38.510672	121.081711	392.267061	8.318560	92.622370	10.571397	-78.954669	76.171625	396.802157	224.572490	58.346610	5.929487	138.369737	58.885412	360.731123	-42.196529	1484.873726	170.257991	76.974092	1442.656145	446.938570	-174.457121	1496.771004	-96.849307	178.395259	1398.739779	708.581019	-212.982139	1638.922854	-323.251226	340.253394	1507.338425	879.625990
1373	13.72000	57.752237	936.704968	285.860098	68.693247	1508.147545	288.644000	146.515697	1659.835119	234.910074	39.189247	928.875164	211.189380	76.315235	944.534772	360.530826	146.037239	532.989320	80.582721	89.544430	514.301275	373.948951	46.379490	136.547736	15.634129	-39.628434	120.693394	393.734094	7.143220	92.530229	13.365927	-80.095148	75.795336	398.271564	223.344158	58.056022	6.626914	137.216875	58.422445	362.004221	-44.616552	1484.706899	173.802613	76.003090	1442.418271	450.399553	-174.356510	1497.688740	-94.600093	182.650886	1400.706145	709.106719	-208.661444	1642.565603	-317.288692	345.010138	1514.175136	874.925981
1374	13.73000	56.262608	936.362315	288.735836	66.523692	1507.937356	292.126258	144.037482	1659.864898	238.781688	37.364305	928.528950	214.052517	75.160923	944.195680	363.419168	144.787704	533.156309	82.315137	88.714994	513.950218	375.722294	45.198493	136.467515	18.064540	-40.746196	120.305077	395.201127	5.967881	92.438088	16.160456	-81.235627	75.419047	399.740971	222.115825	57.765433	7.324342	136.064012	57.959477	363.277319	-47.036575	1484.540072	177.347235	75.032088	1442.180397	453.860537	-174.255900	1498.606475	-92.350879	186.906514	1402.672511	709.632420	-204.340749	1646.208352	-311.326158	349.766882	1521.011848	870.225972
1375	13.74000	54.772979	936.019662	291.611573	64.354137	1507.727166	295.608515	141.559268	1659.894677	242.653301	35.539362	928.182735	216.915654	74.006612	943.856589	366.307511	143.538170	533.323297	84.047553	87.885557	513.599161	377.495636	44.017496	136.387295	20.494952	-41.863958	119.916760	396.668160	4.792541	92.345947	18.954986	-82.376107	75.042758	401.210378	220.887493	57.474845	8.021770	134.911150	57.496510	364.550417	-49.456598	1484.373245	180.891857	74.061086	1441.942523	457.321521	-174.155289	1499.524211	-90.101666	191.162142	1404.638877	710.158120	-200.020054	1649.851101	-305.363624	354.523627	1527.848560	865.525963
1376	13.75000	53.283350	935.677009	294.487311	62.184582	1507.516976	299.090772	139.081053	1659.924456	246.524914	33.714420	927.836521	219.778791	72.852301	943.517498	369.195853	142.288636	533.490286	85.779969	87.056120	513.248103	379.268979	42.836499	136.307074	22.925363	-42.981720	119.528443	398.135193	3.617201	92.253807	21.749516	-83.516586	74.666468	402.679786	219.659161	57.184257	8.719197	133.758287	57.033542	365.823515	-51.876621	1484.206417	184.436479	73.090084	1441.704649	460.782505	-174.054679	1500.441946	-87.852452	195.417769	1406.605244	710.683821	-195.699358	1653.493851	-299.401090	359.280371	1534.685271	860.825954
1377	13.76000	51.840782	935.281911	296.643861	60.185889	1507.119779	301.709490	136.666085	1659.780275	249.708411	31.935187	927.431888	221.981294	71.746429	943.131936	371.306413	141.404079	533.694091	87.081243	86.398560	512.893727	380.808512	41.605347	136.154964	25.321984	-44.356156	119.140061	399.676393	2.389641	92.094232	24.552772	-84.940971	74.296034	404.222879	218.279140	56.862210	9.441206	132.367930	56.489212	367.478727	-54.198559	1484.074059	187.054401	72.542903	1441.683984	463.275514	-171.789005	1503.503498	-85.600413	200.183860	1410.759904	708.712628	-188.153829	1660.571578	-290.936955	362.337129	1544.519153	851.991566
1378	13.77000	50.398214	934.886812	298.800411	58.187197	1506.722583	304.328208	134.251116	1659.636095	252.891908	30.155954	927.027255	224.183798	70.640558	942.746375	373.416973	140.519522	533.897896	88.382517	85.741001	512.539351	382.348044	40.374195	136.002855	27.718605	-45.730592	118.751680	401.217594	1.162080	91.934658	27.356029	-86.365357	73.925600	405.765973	216.899119	56.540163	10.163214	130.977573	55.944882	369.133939	-56.520497	1483.941700	189.672323	71.995721	1441.663319	465.768524	-169.523331	1506.565049	-83.348373	204.949951	1414.914564	706.741436	-180.608299	1667.649306	-282.472820	365.393887	1554.353035	843.157178
1379	13.78000	48.955646	934.491714	300.956962	56.188504	1506.325386	306.946926	131.836147	1659.491915	256.075405	28.376722	926.622622	226.386301	69.534686	942.360813	375.527533	139.634965	534.101702	89.683791	85.083441	512.184974	383.887577	39.143043	135.850745	30.115225	-47.105028	118.363298	402.758794	-0.065480	91.775084	30.159285	-87.789742	73.555165	407.309067	215.519099	56.218116	10.885222	129.587216	55.400551	370.789151	-58.842435	1483.809342	192.290245	71.448539	1441.642654	468.261534	-167.257656	1509.626600	-81.096334	209.716042	1419.069225	704.770243	-173.062769	1674.727034	-274.008685	368.450645	1564.186917	834.322790
1380	13.79000	47.513078	934.096615	303.113512	54.189811	1505.928189	309.565644	129.421179	1659.347735	259.258902	26.597489	926.217989	228.588805	68.428814	941.975252	377.638092	138.750408	534.305507	90.985065	84.425881	511.830598	385.427110	37.911891	135.698635	32.511846	-48.479464	117.974916	404.299994	-1.293041	91.615510	32.962542	-89.214128	73.184731	408.852160	214.139078	55.896069	11.607231	128.196858	54.856221	372.444363	-61.164372	1483.676984	194.908167	70.901358	1441.621989	470.754543	-164.991982	1512.688151	-78.844295	214.482133	1423.223885	702.799051	-165.517240	1681.804762	-265.544550	371.507403	1574.020798	825.488402
1381	13.80000	46.070510	933.701517	305.270062	52.191119	1505.530993	312.184362	127.006210	1659.203554	262.442399	24.818256	925.813356	230.791308	67.322943	941.589690	379.748652	137.865851	534.509312	92.286339	83.768321	511.476222	386.966643	36.680738	135.546525	34.908467	-49.853900	117.586534	405.841195	-2.520601	91.455936	35.765798	-90.638513	72.814296	410.395254	212.759058	55.574022	12.329239	126.806501	54.311891	374.099575	-63.486310	1483.544625	197.526089	70.354176	1441.601324	473.247553	-162.726308	1515.749702	-76.592256	219.248224	1427.378545	700.827859	-157.971710	1688.882489	-257.080415	374.564161	1583.854680	816.654014
1382	13.81000	44.627942	933.306419	307.426612	50.192426	1505.133796	314.803080	124.591241	1659.059374	265.625896	23.039023	925.408723	232.993812	66.217071	941.204129	381.859212	136.981294	534.713117	93.587613	83.110762	511.121845	388.506176	35.449586	135.394416	37.305087	-51.228335	117.198152	407.382395	-3.748162	91.296362	38.569055	-92.062898	72.443862	411.938348	211.379037	55.251975	13.051248	125.416144	53.767561	375.754787	-65.808248	1483.412267	200.144011	69.806994	1441.580659	475.740563	-160.460634	1518.811254	-74.340217	224.014315	1431.533206	698.856666	-150.426180	1695.960217	-248.616280	377.620919	1593.688562	807.819626
1383	13.82000	43.185374	932.911320	309.583162	48.193734	1504.736599	317.421798	122.176273	1658.915194	268.809394	21.259790	925.004090	235.196315	65.111199	940.818567	383.969772	136.096737	534.916922	94.888887	82.453202	510.767469	390.045708	34.218434	135.242306	39.701708	-52.602771	116.809770	408.923595	-4.975723	91.136788	41.372311	-93.487284	72.073427	413.481442	209.999017	54.929928	13.773256	124.025787	53.223231	377.409999	-68.130186	1483.279908	202.761933	69.259813	1441.559994	478.233572	-158.194960	1521.872805	-72.088177	228.780405	1435.687866	696.885474	-142.880651	1703.037945	-240.152145	380.677677	1603.522444	798.985238
1384	13.83000	41.742806	932.516222	311.739713	46.195041	1504.339403	320.040516	119.761304	1658.771014	271.992891	19.480557	924.599457	237.398819	64.005327	940.433006	386.080332	135.212180	535.120727	96.190161	81.795642	510.413092	391.585241	32.987282	135.090196	42.098329	-53.977207	116.421388	410.464796	-6.203283	90.977213	44.175568	-94.911669	71.702993	415.024535	208.618996	54.607881	14.495265	122.635430	52.678901	379.065211	-70.452123	1483.147550	205.379855	68.712631	1441.539329	480.726582	-155.929286	1524.934356	-69.836138	233.546496	1439.842526	694.914282	-135.335121	1710.115673	-231.688010	383.734435	1613.356326	790.150850
1385	13.84000	40.300238	932.121123	313.896263	44.196348	1503.942206	322.659234	117.346335	1658.626833	275.176388	17.701324	924.194824	239.601322	62.899456	940.047444	388.190891	134.327623	535.324532	97.491435	81.138082	510.058716	393.124774	31.756130	134.938086	44.494949	-55.351643	116.033006	412.005996	-7.430844	90.817639	46.978824	-96.336055	71.332558	416.567629	207.238976	54.285834	15.217273	121.245072	52.134571	380.720423	-72.774061	1483.015191	207.997777	68.165450	1441.518664	483.219592	-153.663612	1527.995907	-67.584099	238.312587	1443.997186	692.943089	-127.789591	1717.193400	-223.223875	386.791193	1623.190208	781.316462
